HIERARCHY
ROOT Hips
{
	OFFSET 0.00000 0.00000 0.00000
	CHANNELS 6 Xposition Yposition Zposition Zrotation Yrotation Xrotation 
	JOINT LHipJoint
	{
		OFFSET 0 0 0
		CHANNELS 3 Zrotation Yrotation Xrotation
		JOINT LeftUpLeg
		{
			OFFSET 1.37959 -1.78713 0.86582
			CHANNELS 3 Zrotation Yrotation Xrotation
			JOINT LeftLeg
			{
				OFFSET 2.54611 -6.99539 0.00000
				CHANNELS 3 Zrotation Yrotation Xrotation
				JOINT LeftFoot
				{
					OFFSET 2.59951 -7.14211 0.00000
					CHANNELS 3 Zrotation Yrotation Xrotation
					JOINT LeftToeBase
					{
						OFFSET 0.18493 -0.50810 1.96120
						CHANNELS 3 Zrotation Yrotation Xrotation
						End Site
						{
							OFFSET 0.00000 -0.00000 1.02054
						}
					}
				}
			}
		}
	}
	JOINT RHipJoint
	{
		OFFSET 0 0 0
		CHANNELS 3 Zrotation Yrotation Xrotation
		JOINT RightUpLeg
		{
			OFFSET -1.33564 -1.78713 0.86582
			CHANNELS 3 Zrotation Yrotation Xrotation
			JOINT RightLeg
			{
				OFFSET -2.52705 -6.94302 0.00000
				CHANNELS 3 Zrotation Yrotation Xrotation
				JOINT RightFoot
				{
					OFFSET -2.55964 -7.03257 0.00000
					CHANNELS 3 Zrotation Yrotation Xrotation
					JOINT RightToeBase
					{
						OFFSET -0.25804 -0.70896 2.12109
						CHANNELS 3 Zrotation Yrotation Xrotation
						End Site
						{
							OFFSET -0.00000 -0.00000 1.11821
						}
					}
				}
			}
		}
	}
	JOINT LowerBack
	{
		OFFSET 0 0 0
		CHANNELS 3 Zrotation Yrotation Xrotation
		JOINT Spine
		{
			OFFSET -0.02031 2.24248 -0.18900
			CHANNELS 3 Zrotation Yrotation Xrotation
			JOINT Spine1
			{
				OFFSET 0.08342 2.24689 -0.03799
				CHANNELS 3 Zrotation Yrotation Xrotation
				JOINT Neck
				{
					OFFSET 0 0 0
					CHANNELS 3 Zrotation Yrotation Xrotation
					JOINT Neck1
					{
						OFFSET -0.11607 1.55844 0.24628
						CHANNELS 3 Zrotation Yrotation Xrotation
						JOINT Head
						{
							OFFSET 0.06877 1.60174 -0.17013
							CHANNELS 3 Zrotation Yrotation Xrotation
							End Site
							{
								OFFSET 0.03358 1.61266 -0.08543
							}
						}
					}
				}
				JOINT LeftShoulder
				{
					OFFSET 0 0 0
					CHANNELS 3 Zrotation Yrotation Xrotation
					JOINT LeftArm
					{
						OFFSET 3.47537 0.55866 -0.72348
						CHANNELS 3 Zrotation Yrotation Xrotation
						JOINT LeftForeArm
						{
							OFFSET 5.38154 -0.00000 0.00000
							CHANNELS 3 Zrotation Yrotation Xrotation
							JOINT LeftHand
							{
								OFFSET 3.33312 -0.00000 0.00000
								CHANNELS 3 Zrotation Yrotation Xrotation
								JOINT LeftFingerBase
								{
									OFFSET 0 0 0
									CHANNELS 3 Zrotation Yrotation Xrotation
									JOINT LeftHandIndex1
									{
										OFFSET 0.71079 -0.00000 0.00000
										CHANNELS 3 Zrotation Yrotation Xrotation
										End Site
										{
											OFFSET 0.57306 -0.00000 0.00000
										}
									}
								}
								JOINT LThumb
								{
									OFFSET 0 0 0
									CHANNELS 3 Zrotation Yrotation Xrotation
									End Site
									{
										OFFSET 0.58181 -0.00000 0.58181
									}
								}
							}
						}
					}
				}
				JOINT RightShoulder
				{
					OFFSET 0 0 0
					CHANNELS 3 Zrotation Yrotation Xrotation
					JOINT RightArm
					{
						OFFSET -3.27844 0.90739 -0.35708
						CHANNELS 3 Zrotation Yrotation Xrotation
						JOINT RightForeArm
						{
							OFFSET -5.16954 -0.00000 0.00000
							CHANNELS 3 Zrotation Yrotation Xrotation
							JOINT RightHand
							{
								OFFSET -3.38287 -0.00000 0.00000
								CHANNELS 3 Zrotation Yrotation Xrotation
								JOINT RightFingerBase
								{
									OFFSET 0 0 0
									CHANNELS 3 Zrotation Yrotation Xrotation
									JOINT RightHandIndex1
									{
										OFFSET -0.81797 -0.00000 0.00000
										CHANNELS 3 Zrotation Yrotation Xrotation
										End Site
										{
											OFFSET -0.65947 -0.00000 0.00000
										}
									}
								}
								JOINT RThumb
								{
									OFFSET 0 0 0
									CHANNELS 3 Zrotation Yrotation Xrotation
									End Site
									{
										OFFSET -0.66953 -0.00000 0.66953
									}
								}
							}
						}
					}
				}
			}
		}
	}
}
MOTION
Frames: 11
Frame Time: .0083333
15.4113 17.7681 4.5485 -176.4160 11.1002 -175.7110 0.0000 0.0000 0.0000 -15.0558 -4.7927 -26.7664 2.4904 9.8204 28.3971 0.0341 -0.7800 -3.3012 0.6373 -5.1077 -14.2161 0.0000 0.0000 0.0000 23.4164 3.9408 6.6950 -4.1244 -12.3241 36.8883 -0.1007 -1.4078 5.6656 -0.0634 -1.6247 4.4695 2.3012 0.4642 -0.7103 2.6948 0.6692 4.2155 1.5379 0.4621 4.7421 -11.1957 -1.1966 -11.4831 -2.0314 6.5314 36.1626 2.4635 2.4075 14.2921 -0.0000 -0.0000 0.0000 -57.2573 8.8922 70.9235 31.6007 -42.2265 -12.4717 -0.0000 -0.0000 0.9794 2.6465 34.4910 1.4994 -7.1250 0.0000 -0.0000 -35.4083 60.8805 -14.7513 -0.0000 -0.0000 0.0000 82.4664 22.2271 25.5990 -23.4056 34.5294 -7.3669 0.0000 -0.0000 -15.4616 -14.8594 20.9044 -5.4080 7.1250 -0.0000 -0.0000 8.7374 -8.6198 7.4183
15.3883 17.7903 4.3683 -177.0770 11.4042 -176.1250 0.0000 0.0000 0.0000 -16.0763 -4.4512 -25.6152 2.4520 9.7501 28.1711 0.0497 -0.6957 -4.0202 0.4758 -4.4237 -12.2718 0.0000 0.0000 0.0000 22.4512 4.3971 5.5751 -4.7046 -13.0432 39.5303 -0.2064 -2.3063 8.0916 -0.0714 -1.7237 4.7427 1.5632 0.4879 -0.7089 2.5835 0.7230 4.4139 1.8421 0.4622 4.9401 -11.1007 -1.1333 -11.6794 -2.1126 6.7505 36.4155 2.4632 2.4965 14.4531 0.0000 0.0000 0.0000 -57.5571 8.8527 70.4134 31.3530 -42.0253 -12.3055 -0.0000 -0.0000 1.1502 2.8104 34.5534 1.5948 -7.1250 0.0000 -0.0000 -35.3142 60.9707 -14.7825 0.0000 0.0000 0.0000 82.5927 22.3725 25.4933 -23.1408 34.2424 -7.2174 0.0000 -0.0000 -15.3528 -15.0518 20.9625 -5.4954 7.1250 -0.0000 -0.0000 8.6173 -8.5381 7.3280
15.3646 17.8140 4.1896 -177.5410 11.5541 -176.4070 0.0000 0.0000 0.0000 -16.8921 -4.0817 -24.6393 2.4014 9.6564 27.8712 0.0636 -0.8212 -4.5437 0.4892 -4.4848 -12.4448 0.0000 0.0000 0.0000 21.7621 4.7867 4.3110 -5.3213 -13.7368 42.1930 -0.3066 -2.9031 9.8609 -0.0592 -1.5701 4.3191 1.0514 0.2603 -0.6731 2.6704 0.4485 4.7546 2.2124 0.3118 5.2789 -12.0701 -1.0378 -12.5053 -1.8408 7.1241 36.4606 2.8105 2.5081 14.6164 -0.0000 0.0000 0.0000 -58.3575 8.9039 69.0348 31.3702 -42.0393 -12.3170 -0.0000 -0.0000 1.3195 1.5958 34.7855 0.9106 -7.1250 0.0000 -0.0000 -36.7556 60.8619 -15.3857 -0.0000 0.0000 0.0000 82.4139 22.9338 26.0853 -22.8606 33.9360 -7.0603 0.0000 -0.0000 -15.3505 -14.7727 21.0147 -5.4021 7.1250 -0.0000 -0.0000 8.7970 -8.5186 7.4881
15.3345 17.8313 4.0169 -178.0510 11.5918 -176.7120 0.0000 0.0000 0.0000 -17.7751 -3.8841 -23.6420 2.3489 9.5578 27.5564 0.0744 -0.7395 -4.9408 0.5765 -4.8622 -13.5161 0.0000 0.0000 0.0000 21.0556 5.1302 2.9777 -5.9789 -14.4078 44.8968 -0.3553 -3.2570 10.6118 -0.0602 -1.5827 4.3537 0.7497 -0.1952 -0.2977 2.7594 -0.1075 5.2924 2.4532 0.0391 5.6497 -13.7883 -0.8887 -14.7607 -1.1053 7.8920 36.8854 3.5910 2.5498 15.2134 0.0000 0.0000 0.0000 -59.5545 8.6081 67.1856 31.1320 -41.8442 -12.1578 -0.0000 -0.0000 1.0978 1.8990 34.8264 1.0848 -7.1250 0.0000 -0.0000 -36.5045 60.9683 -15.3569 0.0000 0.0000 0.0000 82.1576 24.2228 26.9788 -22.4797 33.5150 -6.8489 0.0000 -0.0000 -15.3947 -13.9728 20.6628 -5.0178 7.1250 -0.0000 -0.0000 9.2935 -8.9659 7.8382
15.3092 17.8412 3.8526 -178.8480 11.5908 -177.0500 0.0000 0.0000 0.0000 -18.9519 -3.6737 -22.6617 2.2909 9.4475 27.2054 0.0870 -0.7055 -5.3663 0.5698 -4.8344 -13.4369 0.0000 0.0000 0.0000 20.0511 5.4614 1.6475 -6.6645 -15.0427 47.5935 -0.3326 -3.8538 10.2537 -0.0842 -1.8721 5.1524 0.0719 -0.2223 -0.0207 2.4881 -0.1276 5.1559 2.5456 -0.0042 5.3492 -13.7411 -0.8166 -14.4370 -0.8933 7.9653 37.1394 3.6888 2.6340 15.2408 0.0000 -0.0000 0.0000 -59.5379 8.9561 67.1648 31.0098 -41.7433 -12.0763 -0.0000 -0.0000 1.0174 2.4174 34.7973 1.3801 -7.1250 0.0000 -0.0000 -35.9650 61.0714 -15.1835 0.0000 -0.0000 0.0000 82.3769 23.8402 26.7282 -22.2623 33.2722 -6.7292 0.0000 -0.0000 -15.4346 -13.2363 20.1630 -4.6352 7.1250 -0.0000 -0.0000 9.7495 -9.5490 8.1186
15.2935 17.8519 3.6880 -179.4590 11.8211 -177.3150 0.0000 0.0000 0.0000 -19.9180 -2.9405 -21.8344 2.2212 9.3123 26.7774 0.1046 -1.0149 -5.8343 0.5210 -4.6262 -12.8454 0.0000 0.0000 0.0000 19.2536 5.8629 0.3479 -7.3476 -15.6177 50.1769 -0.2625 -4.4249 9.1633 -0.0550 -1.5138 4.1639 -0.5044 -0.1810 0.0753 2.3028 -0.0505 5.2481 2.6807 0.0104 5.3898 -13.9285 -0.8320 -14.6375 -0.6559 7.9945 37.3551 3.8416 2.6343 15.3694 -0.0000 -0.0000 0.0000 -59.5408 8.8732 66.9094 30.9341 -41.6807 -12.0260 -0.0000 -0.0000 0.9994 2.1494 34.6733 1.2232 -7.1250 0.0000 -0.0000 -36.0926 60.9066 -15.1031 -0.0000 -0.0000 0.0000 82.4749 23.9029 26.6123 -21.9827 32.9575 -6.5764 0.0000 -0.0000 -15.3074 -12.6886 20.0320 -4.4101 7.1250 -0.0000 -0.0000 10.0972 -9.7379 8.3786
15.2768 17.8701 3.5211 -179.8750 12.1015 -177.5160 0.0000 0.0000 0.0000 -20.6552 -2.1865 -21.0480 2.1519 9.1756 26.3463 0.1239 -1.3731 -6.3099 0.5006 -4.5358 -12.5891 0.0000 0.0000 0.0000 18.7064 6.2503 -0.9869 -7.9962 -16.1165 52.5490 -0.1723 -5.0492 7.6737 -0.0084 -0.5918 1.6262 -0.9127 -0.0966 0.0067 2.2008 0.0801 5.3710 2.8125 0.0574 5.5535 -13.8917 -0.9033 -14.7775 -0.7741 8.0157 37.5324 3.8062 2.6221 15.5040 0.0000 0.0000 0.0000 -59.5897 8.6177 66.7216 30.6633 -41.4552 -11.8463 -0.0000 -0.0000 0.7874 2.5966 34.4509 1.4696 -7.1250 0.0000 -0.0000 -35.4145 60.8360 -14.7164 0.0000 0.0000 0.0000 82.5751 23.8994 26.4921 -21.6944 32.6299 -6.4203 0.0000 -0.0000 -14.9176 -12.6150 19.9624 -4.3693 7.1250 -0.0000 -0.0000 10.1429 -9.8152 8.4017
15.2557 17.8946 3.3563 -180.2520 12.0207 -177.7180 0.0000 0.0000 0.0000 -21.3437 -1.8808 -20.0990 2.0756 9.0218 25.8634 0.1399 -1.5834 -6.6878 0.4580 -4.3412 -12.0387 0.0000 0.0000 0.0000 18.2367 6.3718 -2.3397 -8.5981 -16.5420 54.6896 -0.0682 -6.2057 5.9867 -0.0009 0.1956 -0.5375 -1.2715 -0.1316 -0.1071 2.1242 0.0451 5.4194 2.9343 0.0221 5.6735 -13.5554 -0.8755 -14.6116 -1.1427 8.1850 37.6846 3.6307 2.7067 15.5715 0.0000 -0.0000 0.0000 -59.7521 8.6368 66.2927 30.5015 -41.3194 -11.7394 -0.0000 -0.0000 0.9076 2.8519 34.4872 1.6157 -7.1250 0.0000 -0.0000 -35.2022 60.9272 -14.6920 0.0000 -0.0000 0.0000 82.6893 23.6990 26.3151 -21.4197 32.3150 -6.2728 0.0000 -0.0000 -14.4435 -12.9416 19.8142 -4.4540 7.1250 -0.0000 -0.0000 9.9301 -9.9298 8.1963
15.2340 17.9119 3.1913 -180.2330 11.7267 -178.0070 0.0000 0.0000 0.0000 -21.5741 -1.9194 -18.7462 1.9827 8.8299 25.2646 0.1532 -1.3272 -7.0465 0.3517 -3.8102 -10.5434 0.0000 0.0000 0.0000 18.1969 6.2269 -3.5201 -9.1669 -16.9139 56.6654 0.0468 -7.8080 4.4006 -0.0015 0.2522 -0.6930 -1.2575 -0.2832 0.0872 2.2140 -0.1574 5.3975 3.0091 -0.0763 5.5521 -13.5016 -0.7934 -14.1848 -1.3405 8.3775 37.6929 3.5596 2.8055 15.4840 0.0000 0.0000 0.0000 -60.0720 9.0248 65.7130 30.5414 -41.3529 -11.7657 -0.0000 -0.0000 1.1703 2.9381 34.5936 1.6691 -7.1250 0.0000 -0.0000 -35.2317 61.0343 -14.7966 0.0000 0.0000 0.0000 82.6074 23.2834 26.3614 -21.1736 32.0304 -6.1417 0.0000 -0.0000 -14.0770 -13.4801 19.6622 -4.6113 7.1250 -0.0000 -0.0000 9.5800 -10.0260 7.8798
15.2158 17.9274 3.0259 -180.5740 11.5383 -178.4450 0.0000 0.0000 0.0000 -22.1777 -1.7654 -17.3154 1.8832 8.6184 24.6086 0.1642 -1.1240 -7.3404 0.2406 -3.1567 -8.7152 0.0000 0.0000 0.0000 17.7217 6.0576 -4.6403 -9.7137 -17.2457 58.5271 0.1576 -9.2340 3.0247 -0.0196 -0.9048 2.4869 -1.6520 -0.4169 0.5324 2.2213 -0.3259 5.3409 3.2299 -0.1736 5.2536 -13.8388 -0.7803 -13.8456 -1.1882 8.4289 37.7214 3.6784 2.8258 15.3988 0.0000 0.0000 0.0000 -60.4222 9.3714 65.2718 30.3909 -41.2261 -11.6664 -0.0000 -0.0000 1.3715 3.0126 34.4594 1.7057 -7.1250 0.0000 -0.0000 -35.0142 60.9437 -14.6159 0.0000 0.0000 0.0000 82.4937 22.8517 26.5748 -20.8275 31.6265 -5.9592 0.0000 -0.0000 -13.8219 -13.6577 19.8107 -4.7078 7.1250 -0.0000 -0.0000 9.4696 -9.8579 7.8190
15.2039 17.9396 2.8700 -181.3830 11.3387 -178.7570 0.0000 0.0000 0.0000 -23.2983 -1.2588 -16.3791 1.7900 8.4142 23.9794 0.1674 -1.4331 -7.3586 0.2514 -3.2261 -8.9089 0.0000 0.0000 0.0000 16.7293 5.9676 -6.0458 -10.2436 -17.5446 60.2995 0.2596 -10.3432 1.6724 -0.1632 -2.6027 7.1744 -2.5361 -0.4859 0.7352 2.0593 -0.4019 5.3058 3.5558 -0.2486 5.1175 -14.0862 -0.8484 -13.8632 -0.9212 8.4156 38.0388 3.8496 2.8151 15.5389 -0.0000 0.0000 0.0000 -60.6962 9.3225 64.7334 30.0934 -40.9733 -11.4708 -0.0000 -0.0000 1.7669 0.8096 34.3052 0.4563 -7.1250 0.0000 -0.0000 -37.0017 60.2905 -14.9965 -0.0000 0.0000 0.0000 82.4918 22.5507 26.4426 -20.4392 31.1679 -5.7569 0.0000 -0.0000 -13.4399 -13.0495 20.4357 -4.6267 7.1250 -0.0000 -0.0000 9.8760 -9.2956 8.2783
